<svg height="511pt" viewBox="-19 0 511 511.432" width="511pt" xmlns="http://www.w3.org/2000/svg"><path d="m472.214844 234.667969c0-170.957031-145.570313-234.667969-237.332032-234.667969-90.726562 0-234.667968 63.710938-234.667968 234.667969 0 80.375 31.167968 139.960937 65.25 184.09375l-50.933594 8.484375 14.027344 84.171875 128-21.332031c15.761718-2.628907 28.734375-13.847657 33.613281-29.066407 4.875-15.21875.839844-31.886719-10.460937-43.1875-39.730469-39.742187-94.160157-94.171875-94.160157-183.164062 0-122.503907 107.796875-149.335938 149.332031-149.335938 34.5625.964844 68.078126 12.070313 96.375 31.941407 36.90625 26.621093 55.625 66.117187 55.625 117.394531 0 86.464843-54.195312 140.578125-93.765624 180.09375l-3.070313 3.070312c-11.304687 11.300781-15.347656 27.972657-10.46875 43.199219 4.875 15.222656 17.855469 26.441406 33.625 29.066406l128 21.335938 14.027344-84.171875-50.25-8.375c34.816406-44.066407 67.234375-103.773438 67.234375-184.21875zm-429.332032 42.664062c-11.78125 0-21.332031-9.550781-21.332031-21.332031s9.550781-21.332031 21.332031-21.332031 21.332032 9.550781 21.332032 21.332031-9.550782 21.332031-21.332032 21.332031zm85.332032 149.335938c11.785156 0 21.335937 9.550781 21.335937 21.332031s-9.550781 21.332031-21.335937 21.332031c-11.78125 0-21.332032-9.550781-21.332032-21.332031s9.550782-21.332031 21.332032-21.332031zm-21.332032-64c0 11.78125-9.550781 21.332031-21.332031 21.332031-11.785156 0-21.335937-9.550781-21.335937-21.332031 0-11.785157 9.550781-21.335938 21.335937-21.335938 11.78125 0 21.332031 9.550781 21.332031 21.335938zm-42.667968-192c-11.78125 0-21.332032-9.550781-21.332032-21.335938 0-11.78125 9.550782-21.332031 21.332032-21.332031 11.785156 0 21.335937 9.550781 21.335937 21.332031 0 11.785157-9.550781 21.335938-21.335937 21.335938zm85.335937-85.335938c-11.785156 0-21.335937-9.550781-21.335937-21.332031s9.550781-21.332031 21.335937-21.332031c11.78125 0 21.332031 9.550781 21.332031 21.332031s-9.550781 21.332031-21.332031 21.332031zm170.664063 0c-11.78125 0-21.332032-9.550781-21.332032-21.332031s9.550782-21.332031 21.332032-21.332031c11.785156 0 21.335937 9.550781 21.335937 21.332031s-9.550781 21.332031-21.335937 21.332031zm128 170.667969c0 11.78125-9.550782 21.332031-21.332032 21.332031s-21.332031-9.550781-21.332031-21.332031 9.550781-21.332031 21.332031-21.332031 21.332032 9.550781 21.332032 21.332031zm-64-106.667969c0-11.78125 9.550781-21.332031 21.335937-21.332031 11.78125 0 21.332031 9.550781 21.332031 21.332031 0 11.785157-9.550781 21.335938-21.332031 21.335938-11.785156 0-21.335937-9.550781-21.335937-21.335938zm-42.664063 320c-11.785156 0-21.335937-9.550781-21.335937-21.332031s9.550781-21.332031 21.335937-21.332031c11.78125 0 21.332031 9.550781 21.332031 21.332031s-9.550781 21.332031-21.332031 21.332031zm42.664063-85.332031c-11.78125 0-21.332032-9.550781-21.332032-21.332031 0-11.785157 9.550782-21.335938 21.332032-21.335938 11.785156 0 21.335937 9.550781 21.335937 21.335938 0 11.78125-9.550781 21.332031-21.335937 21.332031zm0 0"/></svg>