<?xml version="1.0" encoding="UTF-8" standalone="no"?>
<svg
   xmlns:dc="http://purl.org/dc/elements/1.1/"
   xmlns:cc="http://creativecommons.org/ns#"
   xmlns:rdf="http://www.w3.org/1999/02/22-rdf-syntax-ns#"
   xmlns:svg="http://www.w3.org/2000/svg"
   xmlns="http://www.w3.org/2000/svg"
   xmlns:sodipodi="http://sodipodi.sourceforge.net/DTD/sodipodi-0.dtd"
   xmlns:inkscape="http://www.inkscape.org/namespaces/inkscape"
   inkscape:version="1.0 (4035a4fb49, 2020-05-01)"
   sodipodi:docname="312218.svg"
   id="svg28"
   preserveAspectRatio="xMidYMid meet"
   viewBox="0 0 640 650"
   height="650pt"
   width="640pt"
   version="1.0">
  <defs
     id="defs32" />
  <sodipodi:namedview
     inkscape:current-layer="svg28"
     inkscape:window-maximized="1"
     inkscape:window-y="-8"
     inkscape:window-x="-8"
     inkscape:cy="522.9142"
     inkscape:cx="377.16494"
     inkscape:zoom="0.5"
     showgrid="false"
     id="namedview30"
     inkscape:window-height="1057"
     inkscape:window-width="1920"
     inkscape:pageshadow="2"
     inkscape:pageopacity="0"
     guidetolerance="10"
     gridtolerance="10"
     objecttolerance="10"
     borderopacity="1"
     bordercolor="#666666"
     pagecolor="#ffffff" />
  <metadata
     id="metadata2">
Created by potrace 1.15, written by Peter Selinger 2001-2017
<rdf:RDF>
  <cc:Work
     rdf:about="">
    <dc:format>image/svg+xml</dc:format>
    <dc:type
       rdf:resource="http://purl.org/dc/dcmitype/StillImage" />
    <dc:title></dc:title>
  </cc:Work>
</rdf:RDF>
</metadata>
  <g
     id="g26"
     stroke="none"
     fill="#000000"
     transform="matrix(0.1,0,0,-0.1,0,1280)">
    <path
       d="m 468.66602,0.1328125 c -0.66667,0 -15.73204,4.6681003 -33.33204,10.1347655 l -32,10 -7.60156,20.132813 C 375.86576,93.733723 361.59935,156.40065 356.66602,211.33398 355.19935,228.66732 355.7332,228.93333 342.5332,206 305.86654,142 265.33359,95.333072 214.93359,59.066406 c -6.4,-4.533333 -13.4677,-9.333203 -15.73437,-10.533203 l -4,-2.265625 -16,9.066406 c -8.66667,4.933334 -19.33242,11.465105 -23.73242,14.398438 -10.66667,7.2 -26.26706,22.267887 -34.40039,33.201168 -5.2,7.06667 -7.46615,9.06641 -10.13282,9.06641 -3.06666,0 -3.20117,0.13424 -1.20117,2.26758 1.86667,2.26666 1.60143,3.33177 -3.86523,14.39844 -14.133371,28.79999 -15.999872,57.7345 -8.533206,133.20117 1.466667,14.53333 2.666016,27.2 2.666016,28 0,0.8 6.26576,-10.80052 13.73242,-25.86719 7.46667,-15.06667 17.7336,-33.59922 22.9336,-41.19922 10.93333,-16.4 26.26718,-32.26732 37.86718,-39.33398 l 8.26758,-5.06641 L 219.73242,216 c 32,32.66667 42.9336,44.79948 42.9336,48.13281 0,0.4 -2.3987,1.46706 -5.33204,2.40039 -6.13333,1.86667 -6.53476,3.06719 -2.13476,5.86719 4.4,2.93333 8.26654,9.59935 10.5332,18.66602 1.73334,6.4 1.73477,7.73268 0.13477,8.66601 -1.46667,0.8 -1.20091,2.80026 1.73242,10.9336 2.93333,8.4 3.59948,12.93346 4.13281,27.46679 0.4,10.93334 0.002,19.33334 -0.93164,22 -0.8,2.53334 -2.93411,13.20104 -4.80078,23.73438 -4,22.93333 -8.13359,35.46588 -14.93359,45.19922 -7.6,11.06666 -21.59935,20.53281 -38.66602,26.13281 -5.2,1.73333 -7.06641,3.06745 -7.06641,4.80078 0,2.66667 1.2,3.19935 10,4.66602 7.6,1.33333 14.53204,5.20026 19.33204,10.93359 3.73333,4.53333 4.13346,5.73359 3.46679,10.93359 -1.06666,7.73334 -6.93307,18.13308 -13.0664,23.06641 -5.06667,4 -6.26576,6.80039 -3.73243,8.40039 0.8,0.53333 5.46511,-0.4 10.39844,-2 21.86667,-7.06667 39.46823,-18.13307 49.60156,-31.06641 l 5.86524,-7.46679 4.66797,4.13281 c 3.33333,2.93333 6.26679,7.73294 9.46679,15.59961 9.06667,21.86666 24.39987,49.06758 38.53321,68.26758 1.46666,2.13333 1.46666,2.66588 0,3.19922 -2.4,0.8 -71.20117,16.53489 -77.20117,17.60156 -4.53334,0.8 -13.33204,6.39844 -13.33204,8.39844 0,0.53333 -2.66718,4.93437 -5.86718,9.73437 -11.73334,17.6 -13.86654,29.59909 -14.53321,85.73242 l -0.5332,38.80078 12,-16.80078 c 15.33333,-21.6 28.53281,-37.19922 38.13281,-45.19922 8.13334,-6.8 17.33282,-12.93281 18.13282,-12.13281 0.26666,0.26667 -3.99961,13.06654 -9.59961,28.5332 -16.53334,46.26667 -18.26628,57.73217 -11.59961,72.79883 2,4.4 4.00039,7.86719 4.40039,7.86719 0.53333,0 1.9987,-2.9332 3.33203,-6.5332 C 289.86589,738.93346 312,713.99987 348,684.5332 c 1.73333,-1.46666 1.99948,0.39922 2.13281,15.19922 0,10.8 1.33295,25.60026 3.59961,40.9336 1.86667,13.2 3.86706,28.66705 4.40039,34.40039 0.53334,5.73333 1.33386,10.00065 1.86719,9.33398 0.53333,-0.53333 4.93333,-10.40104 10,-21.73437 11.6,-26.53334 23.20065,-49.33243 31.33398,-61.73243 4.43538,-6.91616 6.82614,-10.24599 8.07422,-10.72851 0.39522,-0.82476 1.38731,-1.49292 3.0586,-1.52735 0.74314,-0.0153 2.23214,-0.35494 3.51172,-0.38476 0.76774,-0.0179 1.46077,0.0759 1.87109,0.41797 1.25319,1.04464 1.84493,2.56378 2.3418,4.06054 0.56826,0.49028 1.22823,1.15018 1.00781,1.58594 1.37692,1.31118 2.72143,2.72512 3.21484,4.61914 -0.11726,-0.15208 -0.46783,-0.60786 -0.35156,-0.45508 0.4502,0.59128 0.90221,1.22392 1.31836,1.8711 0.17917,0.21593 0.3641,0.42768 0.52344,0.6582 0.8666,1.25376 0.98714,2.3827 2.42773,3.2832 0.20001,0.37948 0.42125,0.74856 0.59961,1.13868 0.10439,0.22833 0.12649,0.49016 0.24609,0.71093 0.30895,0.57047 2.07799,3.08759 2.22657,3.31055 1.87369,2.81179 0.46229,1.00678 2.625,3.54297 1.70397,1.70247 3.70696,3.1698 4.81836,5.35937 1.7442,2.75622 0.77085,1.27536 2.95117,4.42188 0.35156,0.55224 2.2348,3.93074 2.52344,4.50586 0.2436,0.4854 0.41024,1.00707 0.64648,1.49609 0.18389,0.3807 0.40729,0.74104 0.61133,1.11133 0.13833,0.24624 1.45652,2.56294 1.51172,2.7793 0.0355,0.13897 -0.50222,-0.21132 -0.41992,-0.0937 0.22875,0.32642 0.6344,0.48985 0.90429,0.7832 0.54615,0.5936 0.9649,1.47003 1.34375,2.1543 0.90962,1.72264 1.78718,3.4592 2.68164,5.18945 0.0637,0.12328 0.71059,1.52098 0.95117,1.90625 0.11963,0.19156 0.26462,0.3655 0.39649,0.54883 0.69756,0.91711 0.71264,0.86311 1.25781,1.89258 0.11844,0.22364 0.17355,0.48057 0.31641,0.68945 0.34889,0.51019 0.78512,0.95451 1.15039,1.45313 0.30462,0.41579 0.57183,0.85996 0.85742,1.28906 0.45388,0.6074 0.90745,1.21291 1.36133,1.82031 0.21889,0.34939 1.2478,1.98526 1.39258,2.24414 0.14506,0.25943 0.22396,0.55419 0.38086,0.80664 0.17371,0.27953 0.36344,0.54971 0.55273,0.82031 0.88299,0.0807 1.89617,0.67714 2.75781,1.96875 0.58092,0.87082 2.8265,4.21109 3.45313,5.23633 0.70005,1.1454 1.23045,2.39147 1.95508,3.52149 0.57052,0.88968 2.68885,3.72741 3.26757,4.51171 0.47038,0.64052 0.93979,1.28137 1.41016,1.92188 0.44088,0.67743 0.85251,1.37546 1.32227,2.0332 0.43065,0.60299 0.94503,1.144 1.37695,1.7461 1.40583,1.95974 2.16756,3.45301 3.70508,5.35937 0.95041,1.17842 2.00628,2.26683 3.00976,3.40039 1.58085,2.04125 3.48025,3.73493 5.44141,5.3711 0.75285,-8.03566 0.68812,-34.98312 -0.45117,-66.08594 -0.8,-21.2 -0.80052,-34.26628 0.13281,-35.59961 1.06667,-2 1.99987,-1.19935 6.5332,5.33398 14.66667,21.46667 35.86758,45.59883 62.26758,70.79883 12,11.46667 14.6655,13.46706 16.79883,12.40039 2.4,-1.33333 2.1345,-2.13242 -2.79883,-15.73242 -7.73333,-20.8 -13.99974,-41.86654 -17.06641,-56.5332 -2.53333,-12.8 -4.93437,-37.20117 -3.73437,-37.20117 0.4,0 6.80039,7.46796 14.40039,16.66796 17.06667,20.93334 31.33333,34.3987 48,45.33204 7.2,4.8 13.46719,8.66796 13.86719,8.66796 0.4,0 0.79883,-6.80117 0.79883,-15.20117 0,-19.73333 -3.46576,-33.33346 -15.73243,-61.46679 -5.06666,-11.73334 -9.06692,-21.46576 -8.93359,-21.73243 0.4,-0.53333 15.33425,8 24.26758,14 8,5.2 29.99987,26.13217 34.5332,32.79883 1.86667,2.66667 3.33164,3.46745 4.93164,2.80078 2.93334,-1.06666 2.9349,-5.33281 -0.39844,-18.13281 -5.73333,-23.06667 -16.66797,-37.4668 -46.66796,-61.4668 -9.2,-7.46666 -20.26602,-16.80078 -24.66602,-20.80078 -8,-7.46666 -8.13333,-7.46523 -22,-9.86523 -14.4,-2.4 -27.06641,-7.2 -43.06641,-16 L 520,557.19922 l 8.13281,-14.93164 c 9.46667,-17.6 19.06745,-37.46732 22.80078,-47.33399 1.46667,-3.73333 3.2,-6.93359 4,-6.93359 0.8,0 3.46719,-2.13411 5.86719,-4.80078 l 4.5332,-4.79883 7.59961,6.79883 c 10.8,9.73333 30.53256,19.33398 47.19922,23.33398 5.86667,1.33334 6.13373,-2.80039 0.40039,-8.40039 -8.4,-8.4 -11.59909,-15.33203 -11.73242,-25.33203 L 608.66602,466 l 5.60156,-2.80078 c 3.06666,-1.6 9.73268,-3.59844 14.66601,-4.39844 C 643.86693,456.13411 644,456.13346 644,453.4668 c 0,-2 -1.73294,-3.06745 -7.59961,-4.80078 -21.73333,-6.4 -37.46732,-19.73269 -45.33398,-38.66602 -1.6,-3.73333 -4.66641,-15.73268 -7.06641,-26.66602 -2.26667,-11.06666 -5.46693,-22.66666 -6.93359,-26 -2.26667,-5.06666 -2.53243,-7.6013 -1.73243,-16.66796 1.2,-14.8 2.79935,-22.13243 6.66602,-31.73243 2.8,-7.2 3.06589,-8.40065 1.19922,-9.33398 -3.86667,-2.13333 1.06823,-15.20052 9.60156,-25.86719 2.53333,-3.06666 4.5332,-5.86614 4.5332,-6.13281 0,-0.4 -3.06796,-1.33229 -6.66796,-2.26563 -8,-1.86666 -8.13295,-0.93333 2.40039,-22 7.73333,-15.6 17.60039,-31.46718 28.40039,-45.86718 8.4,-11.06667 27.99922,-33.4668 29.19922,-33.4668 0.53333,0 4.80013,6.39948 9.46679,14.13281 16.93334,28 42.26771,58.2668 69.73438,83.4668 13.73333,12.4 16.26523,14.26797 17.86523,12.66797 1.6,-1.6 1.20104,-3.73412 -2.26562,-14.80078 -7.86667,-24.53334 -11.3336,-44.66615 -12.9336,-76.13282 -1.06666,-22.53333 2.93295,-94.267183 5.59961,-99.867183 1.46667,-3.066667 1.60091,-4.133594 0.26758,-4.933594 -0.93333,-0.533333 -1.99987,-0.80039 -2.5332,-0.400391 -0.53334,0.266679 -16.13412,-2.133463 -34.80078,-5.466796 -42.4,-7.6 -58.13282,-9.598829 -82.13282,-10.798828 L 599.73242,60.933594 583.06641,77.466797 C 556.13307,104.2668 528.80078,138.13242 500.80078,179.73242 l -12,17.60156 h -11.73437 c -11.33334,0 -11.73243,-0.13307 -11.73243,-3.0664 0,-3.33334 4.93334,-32.40065 6,-35.33399 0.4,-1.2 3.86563,0.79896 10.26563,6.26563 5.33333,4.4 9.86758,7.73346 10.26758,7.4668 0.26666,-0.26667 2.40026,-12.53204 4.93359,-27.33204 8.26667,-50.13328 15.8668,-70.000908 37.4668,-98.267574 9.86666,-12.933333 9.99844,-11.733333 -3.60156,-22 C 518.53268,15.866406 503.20065,8.7999999 485.33398,4 476.93398,1.8666667 469.46602,0.1328125 468.66602,0.1328125 Z M 464.38477,222.73242 c 0.63906,0.10781 1.43125,0.95156 2.28125,2.60156 1.06666,1.86667 0.93437,3.33204 -0.26563,5.33204 -2.4,3.86666 -3.20013,3.33398 -3.4668,-2.66602 -0.25,-3.58333 0.38607,-5.44727 1.45118,-5.26758 z m -40.61719,494.57422 c -0.13551,-0.13237 0.19517,0.33753 0.34961,0.44727 0.023,0.0163 0.0528,0.0195 0.0781,0.0312 -0.13359,-0.16333 -0.27095,-0.32536 -0.42773,-0.47852 z m 0.73633,0.52344 c 0.0142,0.0215 0.0286,0.043 0.043,0.0645 0.0226,0.005 0.0464,0.009 0.0684,0.0156 -0.0435,-0.0294 -0.0692,-0.0514 -0.11132,-0.0801 z m -8.15039,197.22265 c -0.0131,3.1e-4 -0.026,0.002 -0.0391,0.002 -0.0242,0.79832 -0.0428,1.59771 -0.10156,2.39258 8.6e-4,0.0306 0.001,0.0612 0.002,0.0918 0.004,-0.0521 0.008,-0.10418 0.0117,-0.15625 0.0383,-0.77683 0.0856,-1.5534 0.12696,-2.33008 z"
       transform="matrix(7.5000002,0,0,-7.5000002,0,12800)"
       style="stroke-width:0.133333"
       id="path4" />
    <path
       id="path6"
       d="m 5305,10473 c 20,-112 97,-204 203,-243 136,-52 313,3 386,119 22,35 38,76 50,134 l 6,27 h -326 -326 z" />
    <path
       id="path8"
       d="m 458,10485 c -3,-3 -2,-26 3,-50 46,-244 373,-336 549,-154 45,47 75,106 85,167 l 7,42 H 783 c -176,0 -322,-2 -325,-5 z" />
    <path
       id="path10"
       d="m 4830,7503 c 0,-9 9,-36 21,-60 52,-108 213,-130 297,-40 25,26 54,96 45,109 -2,5 -85,8 -184,8 -161,0 -179,-2 -179,-17 z" />
    <path
       id="path12"
       d="m 1534,7285 c -3,-8 4,-35 16,-60 42,-87 169,-127 251,-79 44,26 87,83 91,119 l 3,30 -178,3 c -150,2 -178,0 -183,-13 z" />
    <path
       id="path14"
       d="m 4504,7156 c -3,-8 3,-35 14,-60 25,-54 79,-93 145,-102 89,-13 187,59 199,146 l 3,25 -178,3 c -148,2 -178,0 -183,-12 z" />
    <path
       d="m 279.33398,776 c -18.8,0 -24.66796,0.39961 -24.66796,1.59961 0.13333,3.73333 5.20117,12.66615 9.20117,16.13281 7.73333,6.53334 21.86562,6.66758 30.26562,0.26758 4.4,-3.33333 9.73386,-12.26706 9.86719,-16.40039 0,-1.2 -5.86602,-1.59961 -24.66602,-1.59961 z"
       transform="matrix(7.5000002,0,0,-7.5000002,0,12800)"
       style="stroke-width:0.133333"
       id="path16" />
    <path
       d="M 334.93359,792 336,796.93359 c 3.06667,13.46667 19.20026,21.46563 32.93359,16.26563 5.06667,-1.86667 11.06589,-7.59883 13.19922,-12.79883 C 385.86615,791.73372 386.53346,792 359.4668,792 Z"
       transform="matrix(7.5000002,0,0,-7.5000002,0,12800)"
       style="stroke-width:0.133333"
       id="path18" />
    <path
       d="m 576.13281,792 c -20.8,0 -24.13281,0.26667 -24.13281,2 0,3.73333 3.60013,10.66758 7.4668,14.26758 13.33333,12.4 37.33281,5.4651 40.13281,-11.60156 L 600.40039,792 Z"
       transform="matrix(7.5000002,0,0,-7.5000002,0,12800)"
       style="stroke-width:0.133333"
       id="path20" />
    <path
       d="m 487.4668,805.33398 c -16.13334,0 -24.80078,0.53204 -24.80078,1.33204 0,2.53333 4.00039,11.20104 6.40039,13.73437 12.53333,13.86667 38.40091,7.19922 42.26757,-10.80078 l 0.9336,-4.26563 z"
       transform="matrix(7.5000002,0,0,-7.5000002,0,12800)"
       style="stroke-width:0.133333"
       id="path22" />
  </g>
  <path
     id="path153"
     d="M 361.85743,587.9356 C 307.05616,517.65382 316.50001,478.50001 316.50001,478.50001"
     style="fill:none;stroke:#000000;stroke-width:0.75px;stroke-linecap:butt;stroke-linejoin:miter;stroke-opacity:1" />
</svg>
