<?xml version="1.0"?>
<svg xmlns="http://www.w3.org/2000/svg" viewBox="0 0 192 192" width="512" height="512"><g id="_17-joker" data-name="17-joker"><g id="Glyph"><circle cx="184" cy="120" r="8"/><circle cx="144" cy="48" r="8"/><circle cx="8" cy="120" r="8"/><path d="M44,168a4,4,0,0,0,4,4h80a4,4,0,0,0,4-4V152H44Z"/><path d="M183.38,111.215a4,4,0,0,0,1.521-4.1C181.836,93.587,169.343,68,144,68c-18.544,0-28.484,8.77-32.835,14.146-9.124-8.223-11.721-17.762-7.083-26.614,5.153-9.836,17.559-15.1,27.653-11.737a4,4,0,0,0,4.843-5.584C128.022,21.1,109.13,8.964,86.211,20.422,62.348,32.354,58.872,59.777,59.075,76.014c-8.883-8.23-22.256-14.895-36.864-7.592C4.207,77.425,4,105.8,4,107a4,4,0,0,0,7.682,1.563c.033-.077,3.373-7.732,9.41-9.943,2.8-1.025,5.781-.712,9.119.958C41.5,105.224,43.993,133.56,44,144h88c.011-8.222,2.511-30.783,13.789-36.422,13.86-6.932,33.038,3.789,33.227,3.895A4,4,0,0,0,183.38,111.215Z"/></g></g></svg>
