<svg height="509pt" viewBox="-10 0 509 509.23815" width="509pt" xmlns="http://www.w3.org/2000/svg"><path d="m482.199219 197.914062c-14.988281-26.296874-50.15625-39.757812-85.535157-32.714843-36.496093 7.261719-94.511718 33.109375-122.445312 46.175781 20.777344-24.613281 58.042969-70.664062 73.882812-102.363281 15.125-31.136719 7.824219-68.519531-17.910156-91.675781-23.707031-20.925782-55.855468-22.902344-87.730468-5.960938-53.089844-22.804688-81.617188-6.117188-94.238282 6.496094-21.402344 21.40625-25.089844 58.882812-8.957031 91.140625 15.429687 30.839843 51.125 75.28125 72.179687 100.324219-29.269531-13.550782-83.386718-37.238282-118.0625-44.136719-35.382812-7.042969-70.546874 6.417969-85.535156 32.714843-8.835937 15.496094-17.394531 47.421876 18.621094 92.59375-7.917969 35.226563 2.480469 65.710938 28.925781 83.046876 29.125 18.703124 67.113281 15.875 93.152344-6.933594 23.949219-21.472656 54.664063-63.101563 73.765625-90.449219-2.363281 13.953125-5.84375 27.734375-9.285156 41.332031-15.308594 60.449219-32.664063 128.960938 61.496094 191.734375l23.667968-35.5c-69.066406-46.039062-59.011718-85.707031-43.800781-145.757812 4.878906-17.914063 8.714844-36.101563 11.488281-54.460938 18.933594 27.238281 50.875 70.933594 75.621094 93.109375 26.039062 22.808594 64.023438 25.636719 93.152344 6.933594 26.445312-17.332031 36.84375-47.820312 28.921875-83.046875 36.015625-45.179687 27.457031-77.105469 18.625-92.601563zm0 0"/></svg>